<svg width="30" height="30" viewBox="0 0 38 38" fill="none" xmlns="http://www.w3.org/2000/svg">
<path fill-rule="evenodd" clip-rule="evenodd" d="M19 0C8.5025 0 0 8.46849 0 18.924C0 27.2979 5.43875 34.3707 12.9912 36.8781C13.9412 37.0437 14.2975 36.476 14.2975 35.9792C14.2975 35.5298 14.2738 34.0395 14.2738 32.4547C9.5 33.3299 8.265 31.2956 7.885 30.2311C7.67125 29.687 6.745 28.0075 5.9375 27.5581C5.2725 27.2032 4.3225 26.328 5.91375 26.3044C7.41 26.2807 8.47875 27.6763 8.835 28.2441C10.545 31.1063 13.2763 30.302 14.3688 29.8053C14.535 28.5752 15.0337 27.7473 15.58 27.2742C11.3525 26.8011 6.935 25.1689 6.935 17.9305C6.935 15.8725 7.67125 14.1693 8.8825 12.8447C8.6925 12.3716 8.0275 10.4319 9.0725 7.8298C9.0725 7.8298 10.6637 7.33305 14.2975 9.76951C15.8175 9.34372 17.4325 9.13083 19.0475 9.13083C20.6625 9.13083 22.2775 9.34372 23.7975 9.76951C27.4313 7.30939 29.0225 7.8298 29.0225 7.8298C30.0675 10.4319 29.4025 12.3716 29.2125 12.8447C30.4237 14.1693 31.16 15.8488 31.16 17.9305C31.16 25.1926 26.7188 26.8011 22.4913 27.2742C23.18 27.8656 23.7738 29.001 23.7738 30.7751C23.7738 33.3062 23.75 35.3406 23.75 35.9792C23.75 36.476 24.1063 37.0674 25.0562 36.8781C32.5612 34.3707 38 27.2742 38 18.924C38 8.46849 29.4975 0 19 0Z" fill="white"/>
</svg>
